<?xml version="1.0" standalone="no"?>
<!DOCTYPE svg PUBLIC "-//W3C//DTD SVG 20010904//EN"
 "http://www.w3.org/TR/2001/REC-SVG-20010904/DTD/svg10.dtd">
<svg version="1.0" xmlns="http://www.w3.org/2000/svg"
 width="256.000000pt" height="256.000000pt" viewBox="0 0 256.000000 256.000000"
 preserveAspectRatio="xMidYMid meet">

<g transform="translate(0.000000,256.000000) scale(0.100000,-0.100000)"
fill="#000000" stroke="none">
<path d="M1059 2534 c-467 -84 -852 -422 -993 -872 -76 -242 -76 -522 0 -764
112 -357 384 -654 727 -794 158 -64 262 -86 442 -91 178 -6 280 7 426 53 454
142 792 529 874 1001 19 110 19 316 0 426 -82 472 -420 859 -873 1001 -46 14
-122 33 -169 41 -106 19 -330 18 -434 -1z m421 -333 l215 -118 3 -92 c1 -50 5
-91 7 -91 3 0 42 18 87 41 l83 41 223 -124 222 -123 -2 -175 -3 -175 -209
-107 -210 -107 -124 69 -124 70 -166 -85 -167 -84 -188 104 -187 105 -125 -66
-126 -66 -222 123 -222 124 -3 175 -2 175 212 107 213 107 81 -44 c45 -25 85
-45 88 -45 3 0 6 38 6 84 l0 84 208 106 c114 58 209 105 212 106 3 0 102 -53
220 -119z m-829 -1331 c37 -124 70 -218 73 -210 2 8 30 103 62 210 31 107 61
203 66 213 7 13 22 17 73 17 46 0 65 -4 64 -12 0 -7 -44 -139 -97 -293 l-97
-280 -75 -6 c-41 -3 -77 -5 -78 -3 -4 3 -202 581 -202 589 0 3 32 5 72 3 l72
-3 67 -225z m747 205 c59 -24 82 -57 82 -115 0 -52 -22 -90 -73 -120 l-29 -18
36 -12 c98 -32 125 -169 49 -242 -49 -47 -86 -56 -248 -59 l-150 -4 -3 285
c-1 157 0 291 3 299 8 21 275 10 333 -14z m617 -270 c56 -159 102 -291 101
-292 0 0 -32 -3 -71 -5 l-70 -3 -21 65 -20 65 -104 0 -104 0 -19 -61 -20 -61
-70 -7 c-38 -3 -72 -4 -74 -2 -3 2 44 137 103 300 l108 297 79 -3 79 -3 103
-290z"/>
<path d="M1068 2202 c-104 -53 -188 -99 -188 -102 0 -3 76 -46 168 -96 l167
-92 39 20 c39 20 41 20 74 2 l33 -18 156 78 c85 42 154 78 152 80 -8 7 -406
226 -410 226 -2 0 -88 -44 -191 -98z"/>
<path d="M860 2003 l0 -79 84 -47 c47 -26 89 -47 95 -47 15 0 141 63 141 70 0
6 -57 39 -242 140 l-78 42 0 -79z"/>
<path d="M485 1916 c-99 -50 -186 -95 -193 -100 -9 -5 51 -44 190 -121 l203
-113 92 46 c87 43 93 49 93 77 0 27 7 34 71 68 39 22 69 40 67 42 -2 2 -62 36
-133 75 -72 39 -148 82 -170 95 l-41 23 -179 -92z"/>
<path d="M1718 1883 c-81 -42 -145 -80 -142 -84 2 -4 40 -27 84 -51 79 -42 79
-43 82 -87 3 -43 4 -44 78 -86 l75 -43 175 88 c96 49 183 95 194 102 17 13 2
24 -180 124 -109 60 -203 110 -209 111 -5 2 -76 -32 -157 -74z"/>
<path d="M262 1634 l3 -157 195 -109 c107 -59 198 -108 203 -108 4 0 7 69 7
153 l0 152 -127 70 c-70 39 -162 89 -205 113 l-79 43 3 -157z"/>
<path d="M2098 1612 l-188 -97 0 -158 0 -159 193 99 192 99 3 157 c1 86 -1
157 -5 157 -5 0 -92 -44 -195 -98z"/>
<path d="M1740 1475 l0 -114 -30 -16 c-16 -9 -30 -20 -30 -25 0 -6 157 -99
202 -118 5 -2 8 68 8 155 l0 158 -69 38 c-38 20 -72 37 -75 37 -3 0 -6 -52 -6
-115z"/>
<path d="M1200 931 l0 -71 44 0 c55 0 96 30 96 69 0 38 -26 58 -87 66 l-53 7
0 -71z"/>
<path d="M1200 682 l0 -81 58 6 c79 7 102 24 102 72 0 53 -26 74 -100 79 l-60
4 0 -80z"/>
<path d="M1796 872 c-16 -53 -31 -105 -34 -114 -4 -16 4 -18 68 -18 61 0 71 2
66 15 -3 9 -20 60 -37 115 -17 55 -31 100 -32 100 -1 0 -15 -44 -31 -98z"/>
</g>
</svg>
